<svg xmlns="http://www.w3.org/2000/svg" width="512" height="512" viewBox="0 0 512 512">
  <defs>
    <linearGradient id="g" x1="0" y1="0" x2="1" y2="1">
      <stop offset="0%" stop-color="#141414"/>
      <stop offset="100%" stop-color="#0a0a0a"/>
    </linearGradient>
    <filter id="shadow" x="-20%" y="-20%" width="140%" height="140%">
      <feDropShadow dx="0" dy="10" stdDeviation="16" flood-color="#000" flood-opacity="0.35"/>
    </filter>
  </defs>
  <rect width="512" height="512" rx="88" fill="url(#g)"/>
  <!-- subtle flag stripes -->
  <g opacity="0.18">
    <rect x="330" y="80" width="120" height="16" fill="#b20710"/>
    <rect x="330" y="108" width="120" height="16" fill="#b20710"/>
    <rect x="330" y="136" width="120" height="16" fill="#b20710"/>
  </g>
  <!-- emblem: star + play -->
  <g transform="translate(120,136)" filter="url(#shadow)">
    <rect x="0" y="0" width="120" height="120" rx="18" fill="#101010" stroke="#2a2a2a" stroke-width="3"/>
    <g transform="translate(30,20) scale(1.0)" fill="#ffffff" opacity="0.95">
      <path d="M32 0l9.4 19.1 21.1 3.1-15.2 14.8 3.6 21.1L32 48.9 13.1 58.1l3.6-21.1L1.5 22.2l21.1-3.1L32 0z"/>
    </g>
    <polygon points="80,38 118,64 80,90" fill="#E50914"/>
  </g>
  <!-- subtle glow underline -->
  <rect x="96" y="360" width="320" height="8" rx="4" fill="#E50914" opacity="0.55"/>
</svg>
